# MagicaVoxel @ Ephtracy

# group
o 

# material
mtllib zombie.vox.mtl
usemtl palette

# normals
vn -1 0 0
vn 1 0 0
vn 0 0 1
vn 0 0 -1
vn 0 -1 0
vn 0 1 0

# texcoords
vt 0.138672 0.5
vt 0.146484 0.5
vt 0.306641 0.5
vt 0.310547 0.5
vt 0.501953 0.5
vt 0.521484 0.5
vt 0.525391 0.5
vt 0.529297 0.5
vt 0.583984 0.5
vt 0.923828 0.5
vt 0.951172 0.5

# verts
v -0.2 0.6 -1.2
v -0.2 0.6 -1.3
v -0.2 0.7 -1.2
v -0.2 0.7 -1.3
v -0.2 0.9 -1.2
v -0.2 0.9 -1.3
v -0.0999999 0.9 -1.2
v -0.0999999 0.9 -1.3
v -0.0999999 1 -1
v -0.0999999 1 -1.1
v -0.0999999 1 -1.2
v -0.0999999 1 -1.3
v -0.0999999 1 -1.4
v -0.0999999 1 -1.5
v -0.0999999 1.1 -1
v -0.0999999 1.1 -1.1
v -0.0999999 1.1 -1.2
v -0.0999999 1.1 -1.4
v -0.0999999 1.1 -1.5
v -0.0999999 1.2 -1.1
v -0.0999999 1.2 -1.2
v -0.0999999 1.2 -1.3
v -0.0999999 1.2 -1.5
v -0.0999999 1.3 -1.2
v -0.0999999 1.3 -1.3
v -0.0999999 1.4 -1
v -0.0999999 1.4 -1.1
v -0.0999999 1.5 -1
v -0.0999999 1.5 -1.1
v -0.0999999 1.5 -1.2
v 5.96046e-08 0.1 -1.2
v 5.96046e-08 0.1 -1.3
v 5.96046e-08 0.2 -1.2
v 5.96046e-08 0.2 -1.3
v 5.96046e-08 0.5 -1.1
v 5.96046e-08 0.5 -1.2
v 5.96046e-08 0.5 -1.3
v 5.96046e-08 0.5 -1.4
v 5.96046e-08 0.6 -1.1
v 5.96046e-08 0.6 -1.3
v 5.96046e-08 0.6 -1.4
v 5.96046e-08 0.7 -1.2
v 5.96046e-08 0.7 -1.3
v 5.96046e-08 0.8 -1.1
v 5.96046e-08 0.8 -1.2
v 5.96046e-08 0.9 -1.2
v 5.96046e-08 0.9 -1.3
v 5.96046e-08 1 -1.1
v 5.96046e-08 1 -1.2
v 5.96046e-08 1 -1.3
v 5.96046e-08 1 -1.4
v 5.96046e-08 1.2 -1.3
v 5.96046e-08 1.2 -1.4
v 5.96046e-08 1.3 -1.2
v 5.96046e-08 1.3 -1.3
v 5.96046e-08 1.3 -1.4
v 5.96046e-08 1.4 -1.2
v 5.96046e-08 1.4 -1.3
v 0.1 1.2 -1.4
v 0.1 1.2 -1.5
v 0.1 1.3 -1.3
v 0.1 1.3 -1.4
v 0.1 1.3 -1.5
v 0.1 1.4 -1.2
v 0.1 1.4 -1.3
v 0.1 1.4 -1.4
v 0.1 1.5 -1.2
v 0.1 1.5 -1.3
v 0.2 1.3 -1.4
v 0.2 1.3 -1.5
v 0.2 1.4 -1.3
v 0.2 1.4 -1.4
v 0.2 1.4 -1.5
v 0.2 1.5 -1.3
v 0.2 1.5 -1.4
v 0.2 1.5 -1.5
v 0.3 0.1 -1.2
v 0.3 0.1 -1.3
v 0.3 0.2 -1.2
v 0.3 0.2 -1.3
v 0.3 0.5 -1.2
v 0.3 0.5 -1.3
v 0.5 0.6 -1.2
v 0.5 0.6 -1.3
v 0.5 0.7 -1.2
v 0.5 0.7 -1.3
v 0.5 0.9 -1.2
v 0.5 0.9 -1.3
v -0.0999999 0.6 -1.2
v -0.0999999 0.6 -1.3
v -0.0999999 0.7 -1.2
v -0.0999999 0.7 -1.3
v -0.0999999 0.9 -1.2
v -0.0999999 0.9 -1.3
v 0.1 0.1 -1.2
v 0.1 0.1 -1.3
v 0.1 0.2 -1.2
v 0.1 0.2 -1.3
v 0.1 0.5 -1.2
v 0.1 0.5 -1.3
v 0.3 1.4 -1
v 0.3 1.4 -1.1
v 0.3 1.5 -1
v 0.3 1.5 -1.1
v 0.4 0.1 -1.2
v 0.4 0.1 -1.3
v 0.4 0.2 -1.2
v 0.4 0.2 -1.3
v 0.4 0.5 -1.1
v 0.4 0.5 -1.2
v 0.4 0.5 -1.3
v 0.4 0.5 -1.4
v 0.4 0.6 -1.3
v 0.4 0.6 -1.4
v 0.4 0.7 -1.1
v 0.4 0.7 -1.3
v 0.4 0.7 -1.4
v 0.4 0.8 -1.1
v 0.4 0.8 -1.3
v 0.4 0.9 -1.1
v 0.4 0.9 -1.2
v 0.4 0.9 -1.3
v 0.4 0.9 -1.4
v 0.4 1 -1.1
v 0.4 1 -1.2
v 0.4 1 -1.3
v 0.4 1 -1.4
v 0.4 1.3 -1
v 0.4 1.3 -1.1
v 0.4 1.4 -1
v 0.4 1.4 -1.1
v 0.4 1.4 -1.2
v 0.4 1.5 -1.1
v 0.4 1.5 -1.2
v 0.5 0.9 -1.2
v 0.5 0.9 -1.3
v 0.5 1 -1
v 0.5 1 -1.2
v 0.5 1 -1.3
v 0.5 1 -1.4
v 0.5 1 -1.5
v 0.5 1.1 -1
v 0.5 1.1 -1.1
v 0.5 1.1 -1.4
v 0.5 1.1 -1.5
v 0.5 1.2 -1
v 0.5 1.2 -1.1
v 0.5 1.2 -1.2
v 0.5 1.2 -1.3
v 0.5 1.2 -1.4
v 0.5 1.3 -1
v 0.5 1.3 -1.1
v 0.5 1.3 -1.2
v 0.5 1.3 -1.3
v 0.5 1.3 -1.4
v 0.5 1.4 -1.1
v 0.5 1.4 -1.2
v 0.5 1.5 -1.2
v 0.5 1.5 -1.5
v 0.6 0.6 -1.2
v 0.6 0.6 -1.3
v 0.6 0.7 -1.2
v 0.6 0.7 -1.3
v 0.6 0.9 -1.2
v 0.6 0.9 -1.3
v -0.0999999 1 -1
v -0.0999999 1.1 -1
v -0.0999999 1.4 -1
v -0.0999999 1.5 -1
v 5.96046e-08 1 -1
v 5.96046e-08 1.1 -1
v 5.96046e-08 1.3 -1
v 5.96046e-08 1.4 -1
v 5.96046e-08 1.5 -1
v 0.1 1.1 -1
v 0.1 1.3 -1
v 0.2 1.3 -1
v 0.2 1.4 -1
v 0.3 1.1 -1
v 0.3 1.3 -1
v 0.3 1.4 -1
v 0.3 1.5 -1
v 0.4 1.1 -1
v 0.4 1.2 -1
v 0.4 1.3 -1
v 0.4 1.4 -1
v 0.5 1 -1
v 0.5 1.1 -1
v 0.5 1.2 -1
v 0.5 1.3 -1
v 5.96046e-08 0.5 -1.1
v 5.96046e-08 0.6 -1.1
v 5.96046e-08 0.8 -1.1
v 5.96046e-08 1 -1.1
v 0.1 0.7 -1.1
v 0.1 0.8 -1.1
v 0.1 0.9 -1.1
v 0.1 1 -1.1
v 0.2 0.6 -1.1
v 0.2 0.7 -1.1
v 0.3 0.6 -1.1
v 0.3 0.7 -1.1
v 0.3 0.8 -1.1
v 0.3 0.9 -1.1
v 0.3 1 -1.1
v 0.3 1.4 -1.1
v 0.3 1.5 -1.1
v 0.4 0.5 -1.1
v 0.4 0.7 -1.1
v 0.4 0.8 -1.1
v 0.4 0.9 -1.1
v 0.4 1 -1.1
v 0.4 1.3 -1.1
v 0.4 1.4 -1.1
v 0.4 1.5 -1.1
v 0.5 1.3 -1.1
v 0.5 1.4 -1.1
v -0.2 0.6 -1.2
v -0.2 0.7 -1.2
v -0.2 0.9 -1.2
v -0.0999999 0.6 -1.2
v -0.0999999 0.7 -1.2
v -0.0999999 0.9 -1.2
v -0.0999999 1 -1.2
v 5.96046e-08 0.1 -1.2
v 5.96046e-08 0.2 -1.2
v 5.96046e-08 0.5 -1.2
v 5.96046e-08 0.9 -1.2
v 5.96046e-08 1 -1.2
v 0.1 0.1 -1.2
v 0.1 0.2 -1.2
v 0.1 0.5 -1.2
v 0.3 0.1 -1.2
v 0.3 0.2 -1.2
v 0.3 0.5 -1.2
v 0.4 0.1 -1.2
v 0.4 0.2 -1.2
v 0.4 0.5 -1.2
v 0.4 0.9 -1.2
v 0.4 1 -1.2
v 0.4 1.4 -1.2
v 0.4 1.5 -1.2
v 0.5 0.6 -1.2
v 0.5 0.7 -1.2
v 0.5 0.9 -1.2
v 0.5 1 -1.2
v 0.5 1.4 -1.2
v 0.5 1.5 -1.2
v 0.6 0.6 -1.2
v 0.6 0.7 -1.2
v 0.6 0.9 -1.2
v -0.0999999 1.3 -1.2
v -0.0999999 1.5 -1.2
v 5.96046e-08 1.3 -1.2
v 5.96046e-08 1.4 -1.2
v 0.1 1.4 -1.2
v 0.1 1.5 -1.2
v -0.2 0.6 -1.3
v -0.2 0.7 -1.3
v -0.2 0.9 -1.3
v -0.0999999 0.6 -1.3
v -0.0999999 0.7 -1.3
v -0.0999999 0.9 -1.3
v -0.0999999 1 -1.3
v -0.0999999 1.2 -1.3
v -0.0999999 1.3 -1.3
v 5.96046e-08 0.1 -1.3
v 5.96046e-08 0.2 -1.3
v 5.96046e-08 0.5 -1.3
v 5.96046e-08 0.9 -1.3
v 5.96046e-08 1 -1.3
v 5.96046e-08 1.2 -1.3
v 5.96046e-08 1.3 -1.3
v 5.96046e-08 1.4 -1.3
v 0.1 0.1 -1.3
v 0.1 0.2 -1.3
v 0.1 0.5 -1.3
v 0.1 1.3 -1.3
v 0.1 1.4 -1.3
v 0.1 1.5 -1.3
v 0.2 1.4 -1.3
v 0.2 1.5 -1.3
v 0.3 0.1 -1.3
v 0.3 0.2 -1.3
v 0.3 0.5 -1.3
v 0.4 0.1 -1.3
v 0.4 0.2 -1.3
v 0.4 0.5 -1.3
v 0.4 0.9 -1.3
v 0.4 1 -1.3
v 0.5 0.6 -1.3
v 0.5 0.7 -1.3
v 0.5 0.9 -1.3
v 0.5 1 -1.3
v 0.6 0.6 -1.3
v 0.6 0.7 -1.3
v 0.6 0.9 -1.3
v 5.96046e-08 0.5 -1.4
v 5.96046e-08 0.6 -1.4
v 5.96046e-08 1 -1.4
v 5.96046e-08 1.2 -1.4
v 5.96046e-08 1.3 -1.4
v 0.1 0.5 -1.4
v 0.1 0.6 -1.4
v 0.1 0.8 -1.4
v 0.1 0.9 -1.4
v 0.1 1 -1.4
v 0.1 1.2 -1.4
v 0.1 1.3 -1.4
v 0.1 1.4 -1.4
v 0.2 0.6 -1.4
v 0.2 0.8 -1.4
v 0.2 0.9 -1.4
v 0.2 1.3 -1.4
v 0.2 1.4 -1.4
v 0.3 0.7 -1.4
v 0.3 0.8 -1.4
v 0.3 1 -1.4
v 0.4 0.5 -1.4
v 0.4 0.6 -1.4
v 0.4 0.7 -1.4
v 0.4 0.9 -1.4
v 0.4 1 -1.4
v -0.0999999 1 -1.5
v -0.0999999 1.1 -1.5
v -0.0999999 1.2 -1.5
v 5.96046e-08 1 -1.5
v 5.96046e-08 1.1 -1.5
v 0.1 1.2 -1.5
v 0.1 1.3 -1.5
v 0.2 1.3 -1.5
v 0.2 1.4 -1.5
v 0.2 1.5 -1.5
v 0.3 1 -1.5
v 0.3 1.1 -1.5
v 0.3 1.4 -1.5
v 0.3 1.5 -1.5
v 0.4 1 -1.5
v 0.4 1.1 -1.5
v 0.5 1 -1.5
v 0.5 1.1 -1.5
v 0.5 1.5 -1.5
v 5.96046e-08 0.1 -1.2
v 0.1 0.1 -1.2
v 0.3 0.1 -1.2
v 0.4 0.1 -1.2
v 5.96046e-08 0.1 -1.3
v 0.1 0.1 -1.3
v 0.3 0.1 -1.3
v 0.4 0.1 -1.3
v 5.96046e-08 0.5 -1.1
v 0.4 0.5 -1.1
v 5.96046e-08 0.5 -1.2
v 0.1 0.5 -1.2
v 0.3 0.5 -1.2
v 0.4 0.5 -1.2
v 5.96046e-08 0.5 -1.3
v 0.1 0.5 -1.3
v 0.3 0.5 -1.3
v 0.4 0.5 -1.3
v 5.96046e-08 0.5 -1.4
v 0.1 0.5 -1.4
v 0.4 0.5 -1.4
v -0.2 0.6 -1.2
v -0.0999999 0.6 -1.2
v 0.5 0.6 -1.2
v 0.6 0.6 -1.2
v -0.2 0.6 -1.3
v -0.0999999 0.6 -1.3
v 0.5 0.6 -1.3
v 0.6 0.6 -1.3
v -0.0999999 0.9 -1.2
v 5.96046e-08 0.9 -1.2
v 0.4 0.9 -1.2
v 0.5 0.9 -1.2
v -0.0999999 0.9 -1.3
v 5.96046e-08 0.9 -1.3
v 0.4 0.9 -1.3
v 0.5 0.9 -1.3
v -0.0999999 1 -1
v 5.96046e-08 1 -1
v 0.5 1 -1
v -0.0999999 1 -1.1
v 5.96046e-08 1 -1.1
v 0.1 1 -1.1
v 0.3 1 -1.1
v 0.4 1 -1.1
v -0.0999999 1 -1.2
v 5.96046e-08 1 -1.2
v 0.4 1 -1.2
v 0.5 1 -1.2
v -0.0999999 1 -1.3
v 5.96046e-08 1 -1.3
v 0.4 1 -1.3
v 0.5 1 -1.3
v -0.0999999 1 -1.4
v 5.96046e-08 1 -1.4
v 0.1 1 -1.4
v 0.3 1 -1.4
v 0.4 1 -1.4
v 0.5 1 -1.4
v -0.0999999 1 -1.5
v 5.96046e-08 1 -1.5
v 0.3 1 -1.5
v 0.4 1 -1.5
v 0.5 1 -1.5
v -0.2 0.9 -1.2
v -0.0999999 0.9 -1.2
v 0.5 0.9 -1.2
v 0.6 0.9 -1.2
v -0.2 0.9 -1.3
v -0.0999999 0.9 -1.3
v 0.5 0.9 -1.3
v 0.6 0.9 -1.3
v -0.0999999 1.2 -1.3
v 5.96046e-08 1.2 -1.3
v 5.96046e-08 1.2 -1.4
v 0.1 1.2 -1.4
v -0.0999999 1.2 -1.5
v 0.1 1.2 -1.5
v 0.4 1.3 -1
v 0.5 1.3 -1
v 0.4 1.3 -1.1
v 0.5 1.3 -1.1
v -0.0999999 1.3 -1.2
v 5.96046e-08 1.3 -1.2
v -0.0999999 1.3 -1.3
v 5.96046e-08 1.3 -1.3
v 0.1 1.3 -1.3
v 5.96046e-08 1.3 -1.4
v 0.1 1.3 -1.4
v 0.2 1.3 -1.4
v 0.1 1.3 -1.5
v 0.2 1.3 -1.5
v 0.3 1.4 -1
v 0.4 1.4 -1
v 0.3 1.4 -1.1
v 0.4 1.4 -1.1
v 0.5 1.4 -1.1
v 5.96046e-08 1.4 -1.2
v 0.1 1.4 -1.2
v 0.4 1.4 -1.2
v 0.5 1.4 -1.2
v 5.96046e-08 1.4 -1.3
v 0.1 1.4 -1.3
v 0.2 1.4 -1.3
v 0.1 1.4 -1.4
v 0.2 1.4 -1.4
v -0.0999999 1.5 -1
v 5.96046e-08 1.5 -1
v 0.3 1.5 -1
v -0.0999999 1.5 -1.1
v 5.96046e-08 1.5 -1.1
v 0.3 1.5 -1.1
v 0.4 1.5 -1.1
v -0.0999999 1.5 -1.2
v 0.1 1.5 -1.2
v 0.2 1.5 -1.2
v 0.3 1.5 -1.2
v 0.4 1.5 -1.2
v 0.5 1.5 -1.2
v 0.1 1.5 -1.3
v 0.2 1.5 -1.3
v 0.3 1.5 -1.3
v 0.4 1.5 -1.3
v 0.2 1.5 -1.4
v 0.3 1.5 -1.4
v 0.4 1.5 -1.4
v 0.2 1.5 -1.5
v 0.3 1.5 -1.5
v 0.5 1.5 -1.5

# faces
f 3/8/1 2/8/1 1/8/1
f 4/8/1 2/8/1 3/8/1
f 5/4/1 4/4/1 3/4/1
f 6/4/1 4/4/1 5/4/1
f 11/4/1 8/4/1 7/4/1
f 12/4/1 8/4/1 11/4/1
f 15/7/1 10/7/1 9/7/1
f 16/9/1 11/9/1 10/9/1
f 16/7/1 10/7/1 15/7/1
f 17/8/1 12/8/1 11/8/1
f 17/9/1 11/9/1 16/9/1
f 17/8/1 13/8/1 12/8/1
f 18/7/1 14/7/1 13/7/1
f 18/8/1 13/8/1 17/8/1
f 19/7/1 14/7/1 18/7/1
f 20/7/1 17/7/1 16/7/1
f 20/8/1 16/8/1 15/8/1
f 21/8/1 19/8/1 18/8/1
f 21/7/1 17/7/1 20/7/1
f 21/8/1 18/8/1 17/8/1
f 22/8/1 19/8/1 21/8/1
f 23/8/1 19/8/1 22/8/1
f 24/8/1 21/8/1 20/8/1
f 24/8/1 22/8/1 21/8/1
f 25/8/1 22/8/1 24/8/1
f 26/8/1 20/8/1 15/8/1
f 26/8/1 24/8/1 20/8/1
f 27/8/1 24/8/1 26/8/1
f 28/7/1 27/7/1 26/7/1
f 29/8/1 24/8/1 27/8/1
f 29/7/1 27/7/1 28/7/1
f 30/8/1 24/8/1 29/8/1
f 33/8/1 32/8/1 31/8/1
f 34/8/1 32/8/1 33/8/1
f 36/11/1 34/11/1 33/11/1
f 37/11/1 34/11/1 36/11/1
f 39/11/1 37/11/1 36/11/1
f 39/11/1 36/11/1 35/11/1
f 40/8/1 38/8/1 37/8/1
f 40/11/1 37/11/1 39/11/1
f 41/8/1 38/8/1 40/8/1
f 42/8/1 40/8/1 39/8/1
f 43/4/1 41/4/1 40/4/1
f 43/8/1 40/8/1 42/8/1
f 44/8/1 42/8/1 39/8/1
f 45/4/1 43/4/1 42/4/1
f 45/8/1 42/8/1 44/8/1
f 46/4/1 45/4/1 44/4/1
f 46/4/1 43/4/1 45/4/1
f 47/4/1 41/4/1 43/4/1
f 47/4/1 43/4/1 46/4/1
f 48/4/1 46/4/1 44/4/1
f 49/4/1 46/4/1 48/4/1
f 50/4/1 41/4/1 47/4/1
f 51/4/1 41/4/1 50/4/1
f 55/1/1 53/1/1 52/1/1
f 56/1/1 53/1/1 55/1/1
f 57/1/1 55/1/1 54/1/1
f 58/1/1 55/1/1 57/1/1
f 62/8/1 60/8/1 59/8/1
f 63/8/1 60/8/1 62/8/1
f 65/1/1 62/1/1 61/1/1
f 66/1/1 62/1/1 65/1/1
f 67/9/1 65/9/1 64/9/1
f 68/9/1 65/9/1 67/9/1
f 72/8/1 70/8/1 69/8/1
f 73/8/1 70/8/1 72/8/1
f 74/8/1 72/8/1 71/8/1
f 75/7/1 73/7/1 72/7/1
f 75/8/1 72/8/1 74/8/1
f 76/7/1 73/7/1 75/7/1
f 79/8/1 78/8/1 77/8/1
f 80/8/1 78/8/1 79/8/1
f 81/11/1 80/11/1 79/11/1
f 82/11/1 80/11/1 81/11/1
f 85/8/1 84/8/1 83/8/1
f 86/8/1 84/8/1 85/8/1
f 87/4/1 86/4/1 85/4/1
f 88/4/1 86/4/1 87/4/1
f 89/8/2 90/8/2 91/8/2
f 91/8/2 90/8/2 92/8/2
f 91/4/2 92/4/2 93/4/2
f 93/4/2 92/4/2 94/4/2
f 95/8/2 96/8/2 97/8/2
f 97/8/2 96/8/2 98/8/2
f 97/11/2 98/11/2 99/11/2
f 99/11/2 98/11/2 100/11/2
f 101/8/2 102/8/2 103/8/2
f 103/8/2 102/8/2 104/8/2
f 105/8/2 106/8/2 107/8/2
f 107/8/2 106/8/2 108/8/2
f 107/11/2 108/11/2 110/11/2
f 110/11/2 108/11/2 111/11/2
f 110/11/2 111/11/2 113/11/2
f 111/11/2 112/11/2 113/11/2
f 109/11/2 110/11/2 113/11/2
f 113/11/2 112/11/2 114/11/2
f 109/11/2 113/11/2 115/11/2
f 113/8/2 114/8/2 116/8/2
f 115/11/2 113/11/2 116/11/2
f 116/8/2 114/8/2 117/8/2
f 115/4/2 116/4/2 118/4/2
f 116/4/2 117/4/2 118/4/2
f 118/4/2 117/4/2 119/4/2
f 118/8/2 119/8/2 120/8/2
f 120/8/2 119/8/2 121/8/2
f 119/4/2 117/4/2 122/4/2
f 121/8/2 119/8/2 122/8/2
f 122/4/2 117/4/2 123/4/2
f 120/7/2 121/7/2 124/7/2
f 124/7/2 121/7/2 125/7/2
f 122/3/2 123/3/2 126/3/2
f 126/3/2 123/3/2 127/3/2
f 128/8/2 129/8/2 130/8/2
f 130/8/2 129/8/2 131/8/2
f 131/8/2 132/8/2 133/8/2
f 133/8/2 132/8/2 134/8/2
f 135/3/2 136/3/2 138/3/2
f 138/3/2 136/3/2 139/3/2
f 137/8/2 138/8/2 142/8/2
f 138/8/2 139/8/2 142/8/2
f 139/8/2 140/8/2 142/8/2
f 142/8/2 140/8/2 143/8/2
f 140/5/2 141/5/2 144/5/2
f 143/8/2 140/8/2 144/8/2
f 144/5/2 141/5/2 145/5/2
f 142/7/2 143/7/2 146/7/2
f 143/8/2 144/8/2 147/8/2
f 146/7/2 143/7/2 147/7/2
f 144/8/2 145/8/2 147/8/2
f 147/8/2 145/8/2 148/8/2
f 148/8/2 145/8/2 149/8/2
f 149/8/2 145/8/2 150/8/2
f 146/8/2 147/8/2 151/8/2
f 147/6/2 148/6/2 152/6/2
f 151/8/2 147/8/2 152/8/2
f 148/8/2 149/8/2 153/8/2
f 152/6/2 148/6/2 153/6/2
f 149/7/2 150/7/2 154/7/2
f 153/8/2 149/8/2 154/8/2
f 150/8/2 145/8/2 155/8/2
f 154/7/2 150/7/2 155/7/2
f 152/5/2 153/5/2 156/5/2
f 153/8/2 154/8/2 157/8/2
f 156/5/2 153/5/2 157/5/2
f 154/8/2 155/8/2 157/8/2
f 157/8/2 155/8/2 158/8/2
f 155/8/2 145/8/2 159/8/2
f 158/8/2 155/8/2 159/8/2
f 160/8/2 161/8/2 162/8/2
f 162/8/2 161/8/2 163/8/2
f 162/4/2 163/4/2 164/4/2
f 164/4/2 163/4/2 165/4/2
f 170/7/3 167/7/3 166/7/3
f 171/8/3 168/8/3 167/8/3
f 171/7/3 167/7/3 170/7/3
f 172/8/3 168/8/3 171/8/3
f 173/7/3 169/7/3 168/7/3
f 173/8/3 168/8/3 172/8/3
f 174/7/3 169/7/3 173/7/3
f 175/2/3 172/2/3 171/2/3
f 175/8/3 171/8/3 170/8/3
f 176/8/3 174/8/3 173/8/3
f 176/2/3 172/2/3 175/2/3
f 176/8/3 173/8/3 172/8/3
f 177/8/3 176/8/3 175/8/3
f 177/8/3 174/8/3 176/8/3
f 178/8/3 174/8/3 177/8/3
f 179/8/3 175/8/3 170/8/3
f 179/8/3 177/8/3 175/8/3
f 180/6/3 178/6/3 177/6/3
f 180/8/3 177/8/3 179/8/3
f 181/8/3 174/8/3 178/8/3
f 181/6/3 178/6/3 180/6/3
f 182/8/3 174/8/3 181/8/3
f 183/2/3 180/2/3 179/2/3
f 183/8/3 179/8/3 170/8/3
f 184/2/3 180/2/3 183/2/3
f 185/8/3 181/8/3 180/8/3
f 185/2/3 180/2/3 184/2/3
f 186/8/3 181/8/3 185/8/3
f 187/8/3 183/8/3 170/8/3
f 188/7/3 184/7/3 183/7/3
f 188/8/3 183/8/3 187/8/3
f 189/8/3 185/8/3 184/8/3
f 189/7/3 184/7/3 188/7/3
f 190/8/3 185/8/3 189/8/3
f 195/8/3 193/8/3 192/8/3
f 196/4/3 194/4/3 193/4/3
f 196/8/3 193/8/3 195/8/3
f 197/4/3 194/4/3 196/4/3
f 198/4/3 194/4/3 197/4/3
f 199/11/3 192/11/3 191/11/3
f 199/8/3 195/8/3 192/8/3
f 200/4/3 196/4/3 195/4/3
f 200/8/3 195/8/3 199/8/3
f 200/4/3 197/4/3 196/4/3
f 201/11/3 199/11/3 191/11/3
f 201/4/3 200/4/3 199/4/3
f 202/4/3 197/4/3 200/4/3
f 202/4/3 200/4/3 201/4/3
f 203/4/3 197/4/3 202/4/3
f 204/3/3 198/3/3 197/3/3
f 204/4/3 197/4/3 203/4/3
f 205/3/3 198/3/3 204/3/3
f 208/11/3 201/11/3 191/11/3
f 208/11/3 202/11/3 201/11/3
f 209/4/3 203/4/3 202/4/3
f 209/11/3 202/11/3 208/11/3
f 210/8/3 204/8/3 203/8/3
f 210/4/3 203/4/3 209/4/3
f 211/7/3 205/7/3 204/7/3
f 211/8/3 204/8/3 210/8/3
f 212/7/3 205/7/3 211/7/3
f 214/8/3 207/8/3 206/8/3
f 215/8/3 207/8/3 214/8/3
f 216/5/3 214/5/3 213/5/3
f 217/5/3 214/5/3 216/5/3
f 221/8/3 219/8/3 218/8/3
f 222/4/3 220/4/3 219/4/3
f 222/8/3 219/8/3 221/8/3
f 223/4/3 220/4/3 222/4/3
f 228/4/3 224/4/3 223/4/3
f 229/4/3 224/4/3 228/4/3
f 230/8/3 226/8/3 225/8/3
f 231/11/3 227/11/3 226/11/3
f 231/8/3 226/8/3 230/8/3
f 232/11/3 227/11/3 231/11/3
f 236/8/3 234/8/3 233/8/3
f 237/11/3 235/11/3 234/11/3
f 237/8/3 234/8/3 236/8/3
f 238/11/3 235/11/3 237/11/3
f 245/3/3 240/3/3 239/3/3
f 246/3/3 240/3/3 245/3/3
f 247/8/3 242/8/3 241/8/3
f 248/8/3 242/8/3 247/8/3
f 249/8/3 244/8/3 243/8/3
f 250/4/3 245/4/3 244/4/3
f 250/8/3 244/8/3 249/8/3
f 251/4/3 245/4/3 250/4/3
f 252/8/4 253/8/4 254/8/4
f 254/8/4 253/8/4 255/8/4
f 255/8/4 253/8/4 256/8/4
f 256/8/4 253/8/4 257/8/4
f 258/8/4 259/8/4 261/8/4
f 259/4/4 260/4/4 262/4/4
f 261/8/4 259/8/4 262/8/4
f 262/4/4 260/4/4 263/4/4
f 263/4/4 264/4/4 270/4/4
f 270/4/4 264/4/4 271/4/4
f 265/8/4 266/8/4 272/8/4
f 272/8/4 266/8/4 273/8/4
f 267/8/4 268/8/4 275/8/4
f 268/11/4 269/11/4 276/11/4
f 275/8/4 268/8/4 276/8/4
f 276/11/4 269/11/4 277/11/4
f 273/1/4 274/1/4 278/1/4
f 278/1/4 274/1/4 279/1/4
f 279/9/4 280/9/4 281/9/4
f 281/9/4 280/9/4 282/9/4
f 283/8/4 284/8/4 286/8/4
f 284/11/4 285/11/4 287/11/4
f 286/8/4 284/8/4 287/8/4
f 287/11/4 285/11/4 288/11/4
f 289/3/4 290/3/4 293/3/4
f 293/3/4 290/3/4 294/3/4
f 291/8/4 292/8/4 295/8/4
f 292/4/4 293/4/4 296/4/4
f 295/8/4 292/8/4 296/8/4
f 296/4/4 293/4/4 297/4/4
f 298/8/4 299/8/4 303/8/4
f 299/4/4 300/4/4 304/4/4
f 303/8/4 299/8/4 304/8/4
f 304/4/4 300/4/4 305/4/4
f 305/4/4 300/4/4 306/4/4
f 306/4/4 300/4/4 307/4/4
f 301/1/4 302/1/4 308/1/4
f 308/1/4 302/1/4 309/1/4
f 303/11/4 304/11/4 311/11/4
f 304/4/4 305/4/4 311/4/4
f 305/8/4 306/8/4 312/8/4
f 311/4/4 305/4/4 312/4/4
f 306/3/4 307/3/4 313/3/4
f 312/8/4 306/8/4 313/8/4
f 309/1/4 310/1/4 314/1/4
f 314/1/4 310/1/4 315/1/4
f 311/8/4 312/8/4 316/8/4
f 312/4/4 313/4/4 317/4/4
f 316/8/4 312/8/4 317/8/4
f 313/3/4 307/3/4 318/3/4
f 303/11/4 311/11/4 319/11/4
f 311/8/4 316/8/4 320/8/4
f 319/11/4 311/11/4 320/11/4
f 316/4/4 317/4/4 321/4/4
f 320/8/4 316/8/4 321/8/4
f 317/4/4 313/4/4 322/4/4
f 321/4/4 317/4/4 322/4/4
f 313/3/4 318/3/4 322/3/4
f 322/3/4 318/3/4 323/3/4
f 324/7/4 325/7/4 327/7/4
f 325/8/4 326/8/4 328/8/4
f 327/7/4 325/7/4 328/7/4
f 327/8/4 328/8/4 329/8/4
f 328/8/4 326/8/4 329/8/4
f 329/8/4 330/8/4 331/8/4
f 327/8/4 329/8/4 334/8/4
f 329/8/4 331/8/4 334/8/4
f 331/8/4 332/8/4 334/8/4
f 334/8/4 332/8/4 335/8/4
f 332/7/4 333/7/4 336/7/4
f 335/8/4 332/8/4 336/8/4
f 336/7/4 333/7/4 337/7/4
f 334/7/4 335/7/4 338/7/4
f 335/8/4 336/8/4 339/8/4
f 338/7/4 335/7/4 339/7/4
f 336/8/4 337/8/4 339/8/4
f 338/5/4 339/5/4 340/5/4
f 339/8/4 337/8/4 341/8/4
f 340/5/4 339/5/4 341/5/4
f 341/8/4 337/8/4 342/8/4
f 347/8/5 344/8/5 343/8/5
f 348/8/5 344/8/5 347/8/5
f 349/8/5 346/8/5 345/8/5
f 350/8/5 346/8/5 349/8/5
f 353/11/5 352/11/5 351/11/5
f 354/11/5 352/11/5 353/11/5
f 355/11/5 352/11/5 354/11/5
f 356/11/5 352/11/5 355/11/5
f 358/11/5 355/11/5 354/11/5
f 359/11/5 355/11/5 358/11/5
f 361/8/5 358/8/5 357/8/5
f 362/11/5 360/11/5 359/11/5
f 362/8/5 358/8/5 361/8/5
f 362/11/5 359/11/5 358/11/5
f 363/11/5 360/11/5 362/11/5
f 368/8/5 365/8/5 364/8/5
f 369/8/5 365/8/5 368/8/5
f 370/8/5 367/8/5 366/8/5
f 371/8/5 367/8/5 370/8/5
f 376/4/5 373/4/5 372/4/5
f 377/4/5 373/4/5 376/4/5
f 378/3/5 375/3/5 374/3/5
f 379/3/5 375/3/5 378/3/5
f 383/7/5 381/7/5 380/7/5
f 384/8/5 382/8/5 381/8/5
f 384/7/5 381/7/5 383/7/5
f 385/8/5 382/8/5 384/8/5
f 386/8/5 382/8/5 385/8/5
f 387/8/5 382/8/5 386/8/5
f 388/9/5 384/9/5 383/9/5
f 389/9/5 384/9/5 388/9/5
f 390/8/5 382/8/5 387/8/5
f 391/8/5 382/8/5 390/8/5
f 396/8/5 393/8/5 392/8/5
f 397/8/5 393/8/5 396/8/5
f 400/8/5 395/8/5 394/8/5
f 401/8/5 395/8/5 400/8/5
f 402/7/5 397/7/5 396/7/5
f 403/8/5 399/8/5 398/8/5
f 403/7/5 397/7/5 402/7/5
f 403/8/5 398/8/5 397/8/5
f 404/7/5 400/7/5 399/7/5
f 404/8/5 399/8/5 403/8/5
f 405/5/5 401/5/5 400/5/5
f 405/7/5 400/7/5 404/7/5
f 406/5/5 401/5/5 405/5/5
f 407/4/6 408/4/6 411/4/6
f 411/4/6 408/4/6 412/4/6
f 409/4/6 410/4/6 413/4/6
f 413/4/6 410/4/6 414/4/6
f 415/8/6 416/8/6 417/8/6
f 415/8/6 417/8/6 419/8/6
f 417/8/6 418/8/6 419/8/6
f 419/8/6 418/8/6 420/8/6
f 421/8/6 422/8/6 423/8/6
f 423/8/6 422/8/6 424/8/6
f 425/8/6 426/8/6 427/8/6
f 427/8/6 426/8/6 428/8/6
f 428/1/6 429/1/6 430/1/6
f 430/1/6 429/1/6 431/1/6
f 431/8/6 432/8/6 433/8/6
f 433/8/6 432/8/6 434/8/6
f 435/8/6 436/8/6 437/8/6
f 437/8/6 436/8/6 438/8/6
f 438/5/6 439/5/6 442/5/6
f 442/5/6 439/5/6 443/5/6
f 440/1/6 441/1/6 444/1/6
f 444/1/6 441/1/6 445/1/6
f 445/1/6 446/1/6 447/1/6
f 447/1/6 446/1/6 448/1/6
f 449/7/6 450/7/6 452/7/6
f 450/8/6 451/8/6 453/8/6
f 452/7/6 450/7/6 453/7/6
f 453/8/6 451/8/6 454/8/6
f 452/8/6 453/8/6 456/8/6
f 454/8/6 455/8/6 456/8/6
f 453/8/6 454/8/6 456/8/6
f 456/8/6 455/8/6 457/8/6
f 457/8/6 455/8/6 458/8/6
f 458/8/6 455/8/6 459/8/6
f 459/8/6 455/8/6 460/8/6
f 457/9/6 458/9/6 462/9/6
f 458/7/6 459/7/6 463/7/6
f 462/9/6 458/9/6 463/9/6
f 460/8/6 461/8/6 464/8/6
f 463/7/6 459/7/6 464/7/6
f 459/8/6 460/8/6 464/8/6
f 464/8/6 461/8/6 465/8/6
f 463/8/6 464/8/6 466/8/6
f 464/6/6 465/6/6 467/6/6
f 466/8/6 464/8/6 467/8/6
f 465/8/6 461/8/6 468/8/6
f 467/6/6 465/6/6 468/6/6
f 466/7/6 467/7/6 469/7/6
f 467/8/6 468/8/6 470/8/6
f 469/7/6 467/7/6 470/7/6
f 468/8/6 461/8/6 471/8/6
f 470/8/6 468/8/6 471/8/6
